<?xml version="1.0" encoding="UTF-8" standalone="no"?>
<svg
   viewBox="0 0 1935.6899 522.89673"
   xml:space="preserve"
   id="svg2"
   version="1.1"
   xmlns="http://www.w3.org/2000/svg"
   xmlns:svg="http://www.w3.org/2000/svg"
   xmlns:rdf="http://www.w3.org/1999/02/22-rdf-syntax-ns#"
   xmlns:cc="http://creativecommons.org/ns#"
   xmlns:dc="http://purl.org/dc/elements/1.1/"><metadata
     id="metadata8"><rdf:RDF><cc:Work
         rdf:about=""><dc:format>image/svg+xml</dc:format><dc:type
           rdf:resource="http://purl.org/dc/dcmitype/StillImage" /></cc:Work></rdf:RDF></metadata><defs
     id="defs6"><clipPath
       id="clipPath38"
       clipPathUnits="userSpaceOnUse"><path
         id="path36"
         d="M 0,1479.001 H 1978.628 V 0 H 0 Z" /></clipPath></defs><g
     transform="matrix(1.3333333,0,0,-1.3333333,-166.68827,1435.8639)"
     id="g10"><g
       transform="translate(1238.844,888.884)"
       id="g12"><path
         id="path14"
         style="fill:#FFFFFF;fill-opacity:1;fill-rule:nonzero;stroke:none"
         d="m 0,0 -121.316,86.88 6.079,-4.11 0.431,-80.369 h -21.049 v 125.512 h 1.085 l 119.797,-87.317 -4.776,1.088 -0.434,81.455 H 0.869 V -2.59 Z" /></g><g
       transform="translate(1286.0096,891.2851)"
       id="g16"><path
         id="path18"
         style="fill:#FFFFFF;fill-opacity:1;fill-rule:nonzero;stroke:none"
         d="m 0,0 68.364,127.247 h 1.299 L 138.243,0 H 114.156 L 62.938,94.259 80.501,104.026 23.423,0 Z" /></g><g
       transform="translate(470.562,891.2851)"
       id="g20"><path
         id="path22"
         style="fill:#FFFFFF;fill-opacity:1;fill-rule:nonzero;stroke:none"
         d="m 0,0 68.364,127.247 h 1.299 L 138.243,0 H 114.157 L 62.939,94.259 80.501,104.026 23.423,0 Z" /></g><g
       transform="translate(1463.2817,1012.0215)"
       id="g24"><path
         id="path26"
         style="fill:#FFFFFF;fill-opacity:1;fill-rule:nonzero;stroke:none"
         d="M 0,0 51.648,-93.609 39.713,-91.222 88.544,0 h 24.958 L 44.269,-128.116 -25.175,0 Z" /></g><g
       transform="translate(352.6194,912.3331)"
       id="g28"><path
         id="path30"
         style="fill:#FFFFFF;fill-opacity:1;fill-rule:nonzero;stroke:none"
         d="M 0,0 V 99.688 H -21.048 V -21.048 H -19.609 0 90.81 V 0 Z" /></g><g
       id="g32"><g
         clip-path="url(#clipPath38)"
         id="g34"><g
           transform="translate(932.31,900.2319)"
           id="g40"><path
             id="path42"
             style="fill:#4dabf7;fill-opacity:1;fill-rule:nonzero;stroke:none"
             d="M 0,0 C 0.779,0 1.429,-0.596 1.494,-1.373 L 4.287,-34.076 3.646,-1.259 c -0.014,0.779 0.569,1.439 1.343,1.521 0.79,0.08 1.484,-0.445 1.63,-1.209 l 6.196,-32.23 -4.067,32.567 c -0.097,0.773 0.414,1.491 1.177,1.653 0.76,0.159 1.52,-0.286 1.747,-1.031 l 9.53,-31.405 -7.449,31.962 c -0.177,0.759 0.257,1.527 0.997,1.767 0.747,0.24 1.543,-0.126 1.846,-0.843 L 29.355,-28.741 18.607,2.265 c -0.255,0.736 0.096,1.545 0.807,1.861 0.714,0.319 1.548,0.037 1.924,-0.645 L 37.191,-25.259 23.258,4.459 c -0.33,0.706 -0.067,1.547 0.608,1.936 0.675,0.391 1.535,0.198 1.981,-0.441 L 44.617,-20.972 27.654,7.127 c -0.402,0.667 -0.227,1.532 0.403,1.989 0.631,0.458 1.506,0.357 2.015,-0.231 L 51.547,-15.923 31.746,10.24 c -0.47,0.621 -0.387,1.499 0.192,2.02 0.581,0.521 1.461,0.513 2.03,-0.02 l 23.96,-22.436 -22.436,23.96 c -0.532,0.569 -0.541,1.45 -0.019,2.029 0.519,0.579 1.398,0.663 2.019,0.193 L 63.663,-3.821 38.849,17.66 c -0.589,0.51 -0.69,1.386 -0.233,2.016 0.458,0.63 1.322,0.804 1.989,0.403 L 68.702,3.117 41.779,21.886 c -0.639,0.445 -0.831,1.305 -0.441,1.98 0.39,0.675 1.23,0.941 1.935,0.608 l 29.711,-13.93 -28.733,15.85 c -0.682,0.377 -0.963,1.212 -0.646,1.923 0.318,0.712 1.125,1.061 1.862,0.808 l 31.01,-10.75 -30.238,12.762 c -0.718,0.302 -1.084,1.104 -0.843,1.845 0.241,0.741 1.012,1.171 1.767,0.997 L 79.125,26.53 47.721,36.061 c -0.745,0.226 -1.194,0.985 -1.032,1.747 0.162,0.761 0.886,1.273 1.653,1.176 L 80.91,34.917 48.68,41.113 c -0.765,0.147 -1.29,0.855 -1.209,1.63 0.082,0.774 0.761,1.392 1.521,1.342 l 32.812,-0.64 -32.7,2.792 c -0.775,0.067 -1.372,0.716 -1.372,1.495 0,0.779 0.597,1.428 1.372,1.495 l 32.7,2.792 -32.812,-0.641 c -0.756,-0.025 -1.439,0.569 -1.521,1.343 -0.081,0.775 0.444,1.483 1.209,1.63 l 32.23,6.196 -32.568,-4.068 c -0.778,-0.095 -1.491,0.416 -1.653,1.177 -0.162,0.762 0.287,1.521 1.032,1.747 l 31.405,9.531 -31.963,-7.45 c -0.755,-0.176 -1.526,0.256 -1.767,0.998 -0.241,0.741 0.125,1.542 0.843,1.845 L 76.477,77.088 45.467,66.339 c -0.736,-0.255 -1.544,0.096 -1.862,0.807 -0.317,0.712 -0.036,1.547 0.646,1.924 L 72.984,84.919 43.273,70.99 c -0.705,-0.332 -1.545,-0.067 -1.935,0.608 -0.39,0.674 -0.198,1.535 0.441,1.98 L 68.702,92.347 40.605,75.385 c -0.668,-0.402 -1.531,-0.227 -1.989,0.403 -0.457,0.63 -0.356,1.506 0.233,2.016 L 63.663,99.285 37.492,79.478 c -0.622,-0.469 -1.501,-0.385 -2.019,0.192 -0.522,0.58 -0.513,1.461 0.019,2.03 l 22.436,23.96 -23.96,-22.436 c -0.57,-0.534 -1.45,-0.54 -2.03,-0.02 -0.579,0.521 -0.662,1.399 -0.192,2.02 L 51.548,111.387 30.072,86.579 c -0.508,-0.589 -1.384,-0.69 -2.015,-0.231 -0.63,0.457 -0.805,1.321 -0.403,1.988 l 16.963,28.1 -18.77,-26.926 c -0.446,-0.639 -1.306,-0.832 -1.981,-0.441 -0.675,0.389 -0.938,1.23 -0.608,1.935 L 37.191,120.723 21.338,91.983 C 20.963,91.3 20.13,91.018 19.414,91.337 c -0.711,0.317 -1.062,1.126 -0.807,1.862 L 29.355,124.205 16.596,93.971 c -0.303,-0.717 -1.1,-1.084 -1.846,-0.844 -0.74,0.241 -1.174,1.009 -0.997,1.768 l 7.449,31.961 -9.53,-31.404 C 11.445,94.706 10.685,94.256 9.925,94.42 9.162,94.583 8.651,95.301 8.748,96.074 l 4.067,32.567 -6.196,-32.23 C 6.472,95.646 5.777,95.112 4.989,95.202 4.215,95.284 3.632,95.944 3.646,96.723 L 4.287,129.54 1.494,96.836 C 1.429,96.06 0.779,95.464 0,95.464 c -0.779,0 -1.429,0.596 -1.494,1.372 l -2.792,32.695 0.64,-32.808 c 0.015,-0.779 -0.568,-1.439 -1.342,-1.521 -0.788,-0.091 -1.483,0.444 -1.63,1.209 l -6.196,32.23 4.067,-32.567 c 0.097,-0.773 -0.414,-1.491 -1.177,-1.654 -0.758,-0.161 -1.519,0.286 -1.747,1.032 l -9.53,31.405 7.449,-31.962 c 0.177,-0.759 -0.257,-1.527 -0.997,-1.768 -0.745,-0.241 -1.543,0.126 -1.846,0.844 l -12.762,30.241 10.75,-31.013 c 0.255,-0.736 -0.096,-1.545 -0.807,-1.862 -0.716,-0.317 -1.549,-0.036 -1.924,0.646 l -15.85,28.733 13.931,-29.712 c 0.33,-0.705 0.067,-1.546 -0.608,-1.935 -0.674,-0.391 -1.535,-0.198 -1.981,0.441 l -18.77,26.926 16.963,-28.1 c 0.402,-0.667 0.227,-1.531 -0.403,-1.988 -0.631,-0.458 -1.506,-0.357 -2.015,0.231 l -21.48,24.813 19.805,-26.168 c 0.47,-0.621 0.387,-1.499 -0.192,-2.02 -0.581,-0.521 -1.461,-0.514 -2.03,0.02 L -57.923,105.655 -35.491,81.7 c 0.532,-0.569 0.541,-1.45 0.019,-2.03 -0.519,-0.578 -1.399,-0.662 -2.019,-0.192 l -26.171,19.807 24.814,-21.481 c 0.589,-0.51 0.691,-1.386 0.233,-2.016 -0.458,-0.63 -1.32,-0.807 -1.989,-0.403 l -28.097,16.962 26.923,-18.769 c 0.639,-0.445 0.831,-1.306 0.441,-1.98 -0.391,-0.675 -1.231,-0.94 -1.935,-0.608 L -72.984,84.919 -44.25,69.07 c 0.682,-0.377 0.963,-1.212 0.646,-1.924 -0.317,-0.711 -1.125,-1.062 -1.862,-0.807 l -31.013,10.75 30.24,-12.762 c 0.718,-0.303 1.084,-1.104 0.843,-1.845 -0.241,-0.742 -1.009,-1.174 -1.767,-0.998 l -31.96,7.449 31.403,-9.53 c 0.745,-0.226 1.194,-0.985 1.032,-1.747 -0.163,-0.761 -0.877,-1.277 -1.653,-1.177 l -32.568,4.068 32.23,-6.196 c 0.765,-0.147 1.29,-0.855 1.209,-1.63 -0.082,-0.774 -0.722,-1.366 -1.521,-1.343 l -32.812,0.641 32.699,-2.792 c 0.776,-0.067 1.373,-0.716 1.373,-1.495 0,-0.779 -0.597,-1.428 -1.373,-1.495 l -32.699,-2.792 32.812,0.64 c 0.803,0.047 1.439,-0.568 1.521,-1.342 0.081,-0.775 -0.444,-1.483 -1.209,-1.63 l -32.23,-6.196 32.568,4.067 c 0.765,0.102 1.49,-0.414 1.653,-1.176 0.162,-0.762 -0.287,-1.521 -1.032,-1.747 l -31.403,-9.53 31.96,7.448 c 0.756,0.174 1.526,-0.256 1.767,-0.997 0.241,-0.741 -0.125,-1.543 -0.843,-1.845 l -30.24,-12.762 31.013,10.75 c 0.737,0.253 1.545,-0.096 1.862,-0.808 0.317,-0.711 0.036,-1.546 -0.646,-1.923 l -28.734,-15.85 29.712,13.93 c 0.704,0.333 1.544,0.067 1.935,-0.608 0.39,-0.675 0.198,-1.535 -0.441,-1.98 L -68.701,3.117 -40.604,20.079 c 0.667,0.403 1.53,0.228 1.989,-0.403 0.458,-0.63 0.356,-1.506 -0.233,-2.016 l -24.814,-21.481 26.171,19.807 c 0.62,0.471 1.5,0.386 2.019,-0.193 0.522,-0.579 0.513,-1.46 -0.019,-2.029 l -22.432,-23.955 23.955,22.431 c 0.57,0.534 1.45,0.54 2.03,0.02 0.579,-0.521 0.662,-1.399 0.192,-2.02 l -19.805,-26.168 21.48,24.813 c 0.509,0.588 1.384,0.689 2.015,0.231 0.63,-0.457 0.805,-1.322 0.403,-1.989 l -16.963,-28.099 18.77,26.926 c 0.446,0.639 1.307,0.832 1.981,0.441 0.675,-0.389 0.938,-1.23 0.608,-1.936 l -13.931,-29.711 15.85,28.733 c 0.376,0.682 1.211,0.962 1.924,0.645 0.711,-0.316 1.062,-1.125 0.807,-1.861 l -10.75,-31.014 12.762,30.242 c 0.303,0.717 1.1,1.084 1.846,0.843 0.74,-0.24 1.174,-1.008 0.997,-1.767 l -7.449,-31.962 9.53,31.405 c 0.226,0.745 0.988,1.194 1.747,1.031 0.763,-0.162 1.274,-0.88 1.177,-1.653 l -4.067,-32.567 6.196,32.23 c 0.146,0.764 0.84,1.291 1.63,1.209 0.774,-0.082 1.357,-0.742 1.342,-1.521 l -0.64,-32.808 2.792,32.694 C -1.429,-0.596 -0.779,0 0,0 m 6.678,-81.202 c -0.775,0 -1.427,0.593 -1.493,1.373 l -5.185,60.7 -5.184,-60.7 c -0.068,-0.807 -0.763,-1.417 -1.572,-1.371 -0.808,0.043 -1.437,0.719 -1.422,1.528 l 1.19,60.911 -11.501,-59.828 c -0.154,-0.795 -0.913,-1.324 -1.707,-1.198 -0.8,0.126 -1.355,0.864 -1.254,1.667 l 7.55,60.453 -17.692,-58.297 c -0.235,-0.775 -1.045,-1.224 -1.824,-1.014 -0.781,0.21 -1.256,1.001 -1.072,1.79 l 13.828,59.332 -23.689,-56.128 c -0.315,-0.747 -1.169,-1.107 -1.919,-0.817 -0.755,0.29 -1.145,1.127 -0.879,1.891 l 19.953,57.562 -29.425,-53.345 c -0.391,-0.708 -1.275,-0.978 -1.994,-0.612 -0.722,0.367 -1.022,1.241 -0.678,1.973 l 25.861,55.162 -34.84,-49.977 c -0.462,-0.665 -1.367,-0.843 -2.047,-0.4 -0.679,0.44 -0.885,1.34 -0.467,2.033 l 31.485,52.156 -39.874,-46.062 c -0.529,-0.612 -1.449,-0.694 -2.078,-0.184 -0.629,0.509 -0.74,1.425 -0.252,2.071 l 36.765,48.578 -44.469,-41.641 c -0.591,-0.553 -1.515,-0.538 -2.086,0.034 -0.572,0.573 -0.588,1.496 -0.034,2.086 l 41.64,44.47 -48.578,-36.765 c -0.645,-0.489 -1.562,-0.377 -2.071,0.252 -0.509,0.629 -0.428,1.549 0.185,2.079 l 46.061,39.873 -52.156,-31.486 c -0.692,-0.417 -1.593,-0.212 -2.033,0.468 -0.442,0.678 -0.264,1.584 0.4,2.047 l 49.977,34.84 -55.161,-25.861 c -0.733,-0.344 -1.606,-0.045 -1.974,0.677 -0.367,0.721 -0.096,1.603 0.612,1.994 l 53.346,29.426 -57.563,-19.955 c -0.762,-0.265 -1.601,0.125 -1.891,0.88 -0.29,0.756 0.071,1.605 0.817,1.92 l 56.129,23.688 -59.332,-13.827 c -0.789,-0.184 -1.58,0.291 -1.79,1.072 -0.209,0.782 0.239,1.589 1.014,1.824 l 58.297,17.691 -60.454,-7.55 c -0.788,-0.101 -1.541,0.454 -1.667,1.254 -0.127,0.799 0.404,1.555 1.199,1.708 l 59.826,11.5 -60.91,-1.189 c -0.778,-0.028 -1.486,0.613 -1.528,1.421 -0.042,0.808 0.565,1.504 1.37,1.573 l 60.703,5.184 -60.703,5.184 c -0.805,0.069 -1.412,0.765 -1.37,1.573 0.042,0.808 0.76,1.465 1.528,1.421 l 60.91,-1.189 -59.826,11.5 c -0.795,0.153 -1.326,0.909 -1.199,1.708 0.126,0.8 0.879,1.351 1.667,1.254 l 60.454,-7.55 -58.297,17.691 c -0.775,0.235 -1.223,1.042 -1.014,1.823 0.21,0.782 0.993,1.257 1.79,1.073 l 59.332,-13.827 -56.129,23.688 c -0.746,0.315 -1.107,1.164 -0.817,1.919 0.29,0.756 1.129,1.144 1.891,0.88 l 57.563,-19.954 -53.346,29.426 c -0.708,0.391 -0.979,1.273 -0.612,1.994 0.368,0.721 1.242,1.02 1.974,0.677 l 55.161,-25.861 -49.977,34.84 c -0.664,0.463 -0.842,1.369 -0.4,2.047 0.44,0.68 1.341,0.885 2.033,0.468 l 52.156,-31.486 -46.061,39.873 c -0.613,0.53 -0.694,1.45 -0.185,2.078 0.509,0.629 1.426,0.741 2.071,0.253 l 48.578,-36.765 -41.64,44.47 c -0.554,0.59 -0.538,1.513 0.034,2.085 0.571,0.574 1.495,0.587 2.086,0.035 l 44.469,-41.641 -36.765,48.578 c -0.488,0.646 -0.377,1.562 0.252,2.071 0.629,0.51 1.549,0.428 2.078,-0.184 l 39.874,-46.062 -31.485,52.156 c -0.418,0.693 -0.212,1.593 0.467,2.033 0.677,0.442 1.585,0.264 2.047,-0.4 l 34.84,-49.977 -25.861,55.161 c -0.344,0.733 -0.044,1.606 0.678,1.974 0.72,0.368 1.603,0.097 1.994,-0.612 l 29.425,-53.345 -19.953,57.562 c -0.266,0.764 0.124,1.601 0.879,1.891 0.75,0.29 1.604,-0.071 1.919,-0.817 l 23.689,-56.128 -13.828,59.332 c -0.184,0.788 0.291,1.58 1.072,1.789 0.78,0.21 1.589,-0.238 1.824,-1.013 l 17.692,-58.298 -7.55,60.454 c -0.101,0.803 0.454,1.541 1.254,1.667 0.796,0.128 1.553,-0.404 1.707,-1.198 l 11.501,-59.828 -1.19,60.911 c -0.015,0.809 0.614,1.485 1.422,1.528 0.808,0.031 1.504,-0.565 1.572,-1.371 l 5.184,-60.7 5.185,60.7 c 0.068,0.806 0.776,1.413 1.572,1.371 0.808,-0.043 1.437,-0.719 1.422,-1.528 l -1.19,-60.911 11.501,59.828 c 0.153,0.795 0.914,1.327 1.707,1.198 0.8,-0.126 1.355,-0.864 1.254,-1.667 l -7.55,-60.454 17.692,58.298 c 0.235,0.774 1.044,1.224 1.824,1.013 0.781,-0.209 1.256,-1.001 1.072,-1.789 L 20.661,111.32 44.35,167.448 c 0.315,0.746 1.171,1.107 1.919,0.817 0.755,-0.29 1.145,-1.127 0.879,-1.891 L 27.194,108.812 56.62,162.157 c 0.39,0.708 1.273,0.981 1.994,0.612 0.722,-0.368 1.021,-1.241 0.678,-1.974 l -25.861,-55.161 34.84,49.977 c 0.462,0.664 1.366,0.842 2.047,0.4 0.679,-0.44 0.885,-1.34 0.467,-2.033 L 39.3,101.822 79.174,147.884 c 0.529,0.612 1.449,0.694 2.078,0.184 0.629,-0.509 0.74,-1.425 0.252,-2.071 L 44.738,97.419 89.208,139.06 c 0.592,0.553 1.515,0.538 2.086,-0.035 0.572,-0.572 0.588,-1.495 0.034,-2.085 l -41.64,-44.47 48.578,36.765 c 0.645,0.488 1.562,0.377 2.071,-0.253 0.509,-0.628 0.428,-1.548 -0.185,-2.078 l -46.061,-39.873 52.156,31.486 c 0.691,0.416 1.593,0.212 2.033,-0.468 0.442,-0.678 0.264,-1.584 -0.4,-2.047 l -49.977,-34.84 55.16,25.861 c 0.733,0.344 1.606,0.045 1.974,-0.677 0.367,-0.721 0.096,-1.603 -0.612,-1.994 L 61.079,74.926 118.643,94.88 c 0.763,0.264 1.601,-0.124 1.891,-0.88 0.29,-0.755 -0.071,-1.604 -0.817,-1.919 L 63.588,68.393 122.92,82.22 c 0.79,0.183 1.58,-0.291 1.79,-1.073 0.209,-0.781 -0.239,-1.588 -1.014,-1.823 l -58.297,-17.691 60.453,7.55 c 0.791,0.097 1.541,-0.454 1.667,-1.254 0.127,-0.799 -0.403,-1.555 -1.198,-1.708 l -59.827,-11.5 60.911,1.189 c 0.01,0 0.02,0 0.03,0 0.796,0 1.456,-0.623 1.498,-1.421 0.042,-0.808 -0.565,-1.505 -1.371,-1.573 l -60.701,-5.184 60.701,-5.184 c 0.806,-0.069 1.413,-0.765 1.371,-1.573 -0.042,-0.798 -0.703,-1.422 -1.498,-1.422 -0.01,0 -0.02,0 -0.03,0.001 l -60.91,1.189 59.826,-11.5 c 0.795,-0.153 1.325,-0.909 1.198,-1.708 -0.126,-0.8 -0.876,-1.355 -1.667,-1.254 l -60.453,7.55 58.297,-17.691 c 0.775,-0.236 1.223,-1.042 1.014,-1.824 -0.21,-0.782 -0.994,-1.255 -1.79,-1.073 L 63.588,27.071 119.717,3.383 c 0.746,-0.315 1.107,-1.164 0.817,-1.92 -0.29,-0.755 -1.128,-1.145 -1.891,-0.88 L 61.079,20.538 114.425,-8.888 c 0.708,-0.391 0.979,-1.273 0.612,-1.994 -0.368,-0.722 -1.24,-1.021 -1.974,-0.677 l -55.16,25.861 49.977,-34.84 c 0.664,-0.463 0.842,-1.369 0.4,-2.047 -0.441,-0.68 -1.343,-0.884 -2.033,-0.468 L 54.091,8.433 100.152,-31.44 c 0.613,-0.53 0.694,-1.45 0.185,-2.079 -0.509,-0.628 -1.426,-0.741 -2.071,-0.252 l -48.578,36.765 41.64,-44.47 c 0.554,-0.59 0.538,-1.513 -0.034,-2.086 -0.572,-0.572 -1.496,-0.586 -2.086,-0.034 L 44.737,-1.955 81.503,-50.533 c 0.488,-0.646 0.377,-1.562 -0.252,-2.071 -0.629,-0.51 -1.549,-0.428 -2.078,0.184 L 39.3,-6.359 70.785,-58.514 c 0.418,-0.693 0.212,-1.593 -0.467,-2.033 -0.678,-0.443 -1.585,-0.265 -2.047,0.4 l -34.84,49.977 25.861,-55.162 c 0.343,-0.732 0.044,-1.606 -0.678,-1.973 -0.72,-0.367 -1.603,-0.097 -1.994,0.612 L 27.194,-13.348 47.148,-70.91 c 0.266,-0.764 -0.124,-1.601 -0.879,-1.891 -0.751,-0.292 -1.604,0.072 -1.919,0.817 l -23.689,56.128 13.828,-59.332 c 0.184,-0.789 -0.291,-1.58 -1.072,-1.79 -0.779,-0.211 -1.588,0.238 -1.824,1.014 l -17.692,58.297 7.55,-60.453 c 0.101,-0.803 -0.454,-1.541 -1.254,-1.667 -0.8,-0.124 -1.553,0.404 -1.707,1.198 L 6.989,-18.761 8.179,-79.672 C 8.194,-80.481 7.565,-81.157 6.757,-81.2 6.73,-81.201 6.704,-81.202 6.678,-81.202" /></g><g
           transform="translate(1020.626,948.0637)"
           id="g44"><path
             id="path46"
             style="fill:#ffffff;fill-opacity:1;fill-rule:nonzero;stroke:none"
             d="m 0,0 c 0,-48.867 -39.615,-88.482 -88.482,-88.482 -48.868,0 -88.483,39.615 -88.483,88.482 0,48.867 39.615,88.482 88.483,88.482 C -39.615,88.482 0,48.867 0,0" /></g><g
           transform="translate(932.1435,1036.5455)"
           id="g48"><path
             id="path50"
             style="fill:#4dabf7;fill-opacity:1;fill-rule:nonzero;stroke:none"
             d="m 0,0 c -48.868,0 -88.482,-39.615 -88.482,-88.482 0,-48.867 39.614,-88.482 88.482,-88.482 48.868,0 88.482,39.615 88.482,88.482 C 88.482,-39.615 48.868,0 0,0 m 0,-22 c 36.658,0 66.482,-29.824 66.482,-66.482 0,-36.658 -29.824,-66.482 -66.482,-66.482 -36.659,0 -66.482,29.824 -66.482,66.482 C -66.482,-51.824 -36.659,-22 0,-22" /></g><g
           transform="translate(887.8446,948.0637)"
           id="g52"><path
             id="path54"
             style="fill:#000000;fill-opacity:1;fill-rule:nonzero;stroke:none"
             d="M 0,0 C 0,24.466 19.833,44.299 44.299,44.299 V 0 Z" /></g><g
           transform="translate(976.4424,948.0637)"
           id="g56"><path
             id="path58"
             style="fill:#000000;fill-opacity:1;fill-rule:nonzero;stroke:none"
             d="M 0,0 C 0,-24.466 -19.833,-44.299 -44.299,-44.299 V 0 Z" /></g><g
           transform="translate(663.0708,958.3768)"
           id="g60"><path
             id="path62"
             style="fill:#FFFFFF;fill-opacity:1;fill-rule:nonzero;stroke:none"
             d="m 0,0 v 39.598 h 58.633 c 11.905,0 20.545,-8.292 20.545,-19.716 C 79.178,8.361 70.538,0 58.633,0 Z m 61.794,-20.128 2.998,0.269 c 10.865,0.972 19.485,5.094 26.352,12.601 6.882,7.522 10.371,16.541 10.371,26.809 0,11.065 -4.027,20.622 -11.97,28.406 -8.072,8.072 -17.53,11.991 -28.924,11.991 H -22.337 V -66.885 H 0 v 46.038 h 34.125 l 41.897,-46.038 h 28.084 z" /></g><g
           transform="translate(276.9812,918.1549)"
           id="g64"><path
             id="path66"
             style="fill:#FFFFFF;fill-opacity:1;fill-rule:nonzero;stroke:none"
             d="m 0,0 v -19.597 c -17.718,-7.126 -38.173,-10.689 -61.366,-10.689 -18.845,0 -34.831,2.791 -47.957,8.373 -13.127,5.581 -23.516,13.272 -31.166,23.07 -7.652,9.799 -11.476,20.399 -11.476,31.8 0,18.111 8.758,33.344 26.274,45.695 17.515,12.351 39.118,18.528 64.808,18.528 17.716,0 37.406,-3.415 59.071,-10.243 V 67.785 c -19.732,8.314 -39.018,12.471 -57.863,12.471 -19.328,0 -35.375,-4.498 -48.138,-13.495 -12.765,-8.996 -19.147,-20.264 -19.147,-33.804 0,-13.659 6.282,-24.882 18.845,-33.67 12.563,-8.789 28.629,-13.183 48.199,-13.183 20.454,0 40.426,4.631 59.916,13.896" /></g><g
           transform="translate(964.3171,694.7526)"
           id="g68"><path
             id="path70"
             style="fill:#FFFFFF;fill-opacity:1;fill-rule:nonzero;stroke:none"
             d="M 0,0 C 19.938,0 32.731,12.216 32.731,30.311 32.731,48.405 19.938,60.621 0,60.621 H -21.782 V 0 Z M -33.307,70.648 H 0.692 c 25.931,0 43.564,-16.366 43.564,-40.337 0,-23.973 -17.633,-40.338 -43.564,-40.338 h -33.999 z" /></g><g
           transform="translate(1119.3347,694.7526)"
           id="g72"><path
             id="path74"
             style="fill:#FFFFFF;fill-opacity:1;fill-rule:nonzero;stroke:none"
             d="M 0,0 V -10.027 H -58.547 V 70.648 H -1.613 V 60.621 H -47.022 V 35.842 H -6.569 V 26.046 H -47.022 V 0 Z" /></g><g
           transform="translate(1241.9675,765.4005)"
           id="g76"><path
             id="path78"
             style="fill:#FFFFFF;fill-opacity:1;fill-rule:nonzero;stroke:none"
             d="m 0,0 v -80.675 h -9.45 l -48.405,60.16 v -60.16 H -69.38 V 0 h 9.45 l 48.405,-60.16 V 0 Z" /></g><g
           transform="translate(1316.7727,755.3737)"
           id="g80"><path
             id="path82"
             style="fill:#FFFFFF;fill-opacity:1;fill-rule:nonzero;stroke:none"
             d="M 0,0 H -27.66 V 10.027 H 39.069 V 0 H 11.409 V -70.648 H 0 Z" /></g><g
           transform="translate(1446.3196,714.1144)"
           id="g84"><path
             id="path86"
             style="fill:#FFFFFF;fill-opacity:1;fill-rule:nonzero;stroke:none"
             d="M 0,0 -17.402,39.531 -34.806,0 Z m 4.034,-9.22 h -42.873 l -8.874,-20.169 h -11.871 l 36.534,80.675 h 11.409 l 36.65,-80.675 H 12.908 Z" /></g><g
           transform="translate(1517.8967,765.4005)"
           id="g88"><path
             id="path90"
             style="fill:#FFFFFF;fill-opacity:1;fill-rule:nonzero;stroke:none"
             d="m 0,0 h 11.524 v -70.648 h 43.68 V -80.675 H 0 Z" /></g></g></g></g></svg>
