<?xml version="1.0" encoding="UTF-8" standalone="no"?>
<!-- Created with Inkscape (http://www.inkscape.org/) -->

<svg
   viewBox="0 0 291.26093 98.088112"
   version="1.1"
   id="svg1"
   xmlns="http://www.w3.org/2000/svg"
   xmlns:svg="http://www.w3.org/2000/svg">
  <defs
     id="defs1" />
  <g
     id="layer1"
     transform="translate(-4.8238343,-44.948197)">
    <circle
       style="fill:#ffffff;stroke-width:0.295192"
       id="path10"
       cx="130.47375"
       cy="57.11763"
       r="10" />
    <path
       id="path1"
       d="m 130.46271,48.475979 c -4.76567,0 -8.64305,3.87738 -8.64305,8.64306 0,4.76567 3.87738,8.64305 8.64305,8.64305 4.76568,0 8.64306,-3.87738 8.64306,-8.64305 0,-4.76568 -3.87738,-8.64306 -8.64306,-8.64306 m 0,20.81389 c -6.71089,0 -12.17083,-5.45994 -12.17083,-12.17083 0,-6.7109 5.45994,-12.17084 12.17083,-12.17084 6.71089,0 12.17084,5.45994 12.17084,12.17084 0,6.71089 -5.45995,12.17083 -12.17084,12.17083"
       style="display:inline;fill:#4dabf7;fill-opacity:1;fill-rule:nonzero;stroke:none;stroke-width:0.352778"
       clip-path="none" />
    <path
       id="path3"
       d="M 40.337971,107.47704 8.6246617,84.765559 l 1.5889113,1.07456 0.112889,21.009331 H 4.8238347 V 74.038999 h 0.283633 l 31.3164343,22.82578 -1.24848,-0.28434 -0.113594,-21.29331 h 5.503332 v 32.866891 z"
       style="fill:#ffffff;fill-opacity:1;fill-rule:nonzero;stroke:none;stroke-width:0.352778"
       clip-path="none" />
    <path
       id="path5"
       d="M 48.223613,106.84934 66.094629,73.585569 h 0.339725 l 17.92746,33.263771 h -6.296377 l -13.388975,-24.640471 4.59105,-2.55305 -14.920735,27.193521 z"
       style="fill:#ffffff;fill-opacity:1;fill-rule:nonzero;stroke:none;stroke-width:0.352778"
       clip-path="none" />
    <path
       id="path7"
       d="m 89.52532,75.287439 13.50151,24.47043 -3.119966,-0.62406 12.764906,-23.84637 h 6.52428 L 101.09784,108.7784 82.944251,75.287439 Z"
       style="fill:#ffffff;fill-opacity:1;fill-rule:nonzero;stroke:none;stroke-width:0.352778"
       clip-path="none" />
    <path
       id="path9"
       d="m 127.36525,75.287479 h 5.50227 v 31.561971 h -5.50227 z"
       style="fill:#ffffff;fill-opacity:1;fill-rule:nonzero;stroke:none;stroke-width:0.352778"
       clip-path="none" />
    <path
       id="path11"
       d="m 187.38672,75.287439 h 26.66435 v 5.27614 h -21.16208 v 5.86246 h 18.89231 v 5.33259 h -18.89231 v 9.814631 h 21.95619 v 5.27615 h -27.45846 z"
       style="fill:#ffffff;fill-opacity:1;fill-rule:nonzero;stroke:none;stroke-width:0.352778"
       clip-path="none" />
    <path
       id="path13"
       d="m 259.89011,107.47704 -31.71331,-22.711481 1.58856,1.07456 0.11359,21.009331 h -5.50298 V 74.038999 h 0.28399 l 31.31608,22.82578 -1.24848,-0.28434 -0.11359,-21.29331 h 5.50368 v 32.866891 z"
       style="fill:#ffffff;fill-opacity:1;fill-rule:nonzero;stroke:none;stroke-width:0.352778"
       clip-path="none" />
    <path
       id="path15"
       d="m 268.79635,75.287439 h 27.28842 v 5.27614 h -11.00702 v 26.285831 h -5.50192 V 80.563579 h -10.77948 z"
       style="fill:#ffffff;fill-opacity:1;fill-rule:nonzero;stroke:none;stroke-width:0.352778"
       clip-path="none" />
    <path
       id="path17"
       d="m 159.85178,74.560329 h -14.03174 v 32.289041 h 14.08854 c 3.87667,0 17.11395,-0.76059 17.11395,-16.835261 0,-15.12852 -13.23728,-15.45378 -17.17075,-15.45378 m 0,5.29167 c 1.18992,0 4.81154,0 7.62317,1.45909 1.82704,0.94791 4.25592,2.88148 4.25592,8.70302 0,7.27851 -3.36092,9.2269 -4.46547,9.86755 -1.89159,1.096431 -4.43547,1.676051 -7.35682,1.676051 h -8.79687 V 79.851999 Z"
       style="fill:#ffffff;fill-opacity:0.99;fill-rule:nonzero;stroke:none;stroke-width:0.352778"
       clip-path="none" />
    <path
       id="path19"
       d="m 124.2891,57.295419 c 0,-3.31223 2.68499,-5.99722 5.99722,-5.99722 v 5.99722 z"
       style="fill:#000000;fill-opacity:1;fill-rule:nonzero;stroke:none;stroke-width:0.352778"
       clip-path="none" />
    <path
       id="path21"
       d="m 136.28355,57.295419 c 0,3.31223 -2.685,5.99722 -5.99723,5.99722 v -5.99722 z"
       style="fill:#000000;fill-opacity:1;fill-rule:nonzero;stroke:none;stroke-width:0.352778"
       clip-path="none" />
    <path
       id="path4"
       d="m 217.03573,138.32179 v 4.69227 H 193.34977 V 117.8175 h 23.68596 v 4.69219 h -18.7688 v 5.65641 h 12.66228 v 4.49939 h -12.66228 v 5.6563 z"
       style="fill:#4dabf7;fill-opacity:1;fill-rule:nonzero;stroke:none;stroke-width:0.204349"
       clip-path="none" />
    <path
       id="path6"
       d="m 241.99838,133.35128 -7.89965,-16.60422 h -5.46343 l 13.27295,26.28925 13.75534,-26.28925 h -5.49572 z"
       style="fill:#4dabf7;fill-opacity:1;fill-rule:nonzero;stroke:none;stroke-width:0.204349"
       clip-path="none" />
    <path
       id="path8"
       d="m 270.359,135.4735 c 1.76753,1.5427 3.8887,2.31384 6.36335,2.31384 2.47462,0 4.5958,-0.7715 6.36345,-2.31384 1.76764,-1.54261 2.63524,-3.40667 2.63524,-5.59199 0,-2.18551 -0.86813,-4.04955 -2.63524,-5.59226 -1.76764,-1.5426 -3.88883,-2.31401 -6.36345,-2.31401 -2.47465,0 -4.59582,0.77161 -6.36335,2.31401 -1.76773,1.54271 -2.63534,3.40675 -2.63534,5.59226 0,2.18532 0.86811,4.04938 2.63534,5.59199 m 6.36335,7.10257 c -7.45608,0.16053 -14.07659,-5.72075 -13.91585,-12.69456 -0.15999,-7.00631 6.52396,-12.88765 13.91585,-12.69496 3.82441,0 7.10255,1.22133 9.83431,3.69604 2.73175,2.47484 4.11365,5.46354 4.11365,8.99892 0.15998,7.00606 -6.55619,12.88745 -13.94796,12.69456"
       style="fill:#4dabf7;fill-opacity:1;fill-rule:nonzero;stroke:none;stroke-width:0.204349"
       clip-path="none" />
  </g>
</svg>
